<svg width="52" height="39" viewBox="0 0 52 39" fill="none" xmlns="http://www.w3.org/2000/svg">
<path d="M0.216797 6.75297C0.216797 5.06182 0.888605 3.43993 2.08443 2.2441C3.28026 1.04827 4.90215 0.376465 6.5933 0.376465H44.8523C46.5435 0.376465 48.1654 1.04827 49.3612 2.2441C50.557 3.43993 51.2288 5.06182 51.2288 6.75297V9.94122H0.216797V6.75297ZM0.216797 16.3177V32.259C0.216797 33.9501 0.888605 35.572 2.08443 36.7679C3.28026 37.9637 4.90215 38.6355 6.5933 38.6355H44.8523C46.5435 38.6355 48.1654 37.9637 49.3612 36.7679C50.557 35.572 51.2288 33.9501 51.2288 32.259V16.3177H0.216797ZM9.78156 22.6942H12.9698C13.8154 22.6942 14.6263 23.0301 15.2242 23.6281C15.8222 24.226 16.1581 25.0369 16.1581 25.8825V29.0707C16.1581 29.9163 15.8222 30.7273 15.2242 31.3252C14.6263 31.9231 13.8154 32.259 12.9698 32.259H9.78156C8.93598 32.259 8.12503 31.9231 7.52712 31.3252C6.92921 30.7273 6.5933 29.9163 6.5933 29.0707V25.8825C6.5933 25.0369 6.92921 24.226 7.52712 23.6281C8.12503 23.0301 8.93598 22.6942 9.78156 22.6942Z" fill="white"/>
</svg>
