<svg width="39" height="40" viewBox="0 0 39 40" fill="none" xmlns="http://www.w3.org/2000/svg">
<path d="M13.0001 8.625H9.75006C8.88811 8.625 8.06146 8.96741 7.45196 9.5769C6.84247 10.1864 6.50006 11.013 6.50006 11.875V31.375C6.50006 32.237 6.84247 33.0636 7.45196 33.6731C8.06146 34.2826 8.88811 34.625 9.75006 34.625H19.0077" stroke="#BFBFBF" stroke-width="2" stroke-linecap="round" stroke-linejoin="round"/>
<path d="M29.2501 23.25V29.75H35.7501" stroke="#BFBFBF" stroke-width="2" stroke-linecap="round" stroke-linejoin="round"/>
<path d="M29.2501 18.375V11.875C29.2501 11.013 28.9077 10.1864 28.2982 9.5769C27.6887 8.96741 26.862 8.625 26.0001 8.625H22.7501" stroke="#BFBFBF" stroke-width="2" stroke-linecap="round" stroke-linejoin="round"/>
<path d="M19.5001 5.375H16.2501C14.4551 5.375 13.0001 6.83007 13.0001 8.625C13.0001 10.4199 14.4551 11.875 16.2501 11.875H19.5001C21.295 11.875 22.7501 10.4199 22.7501 8.625C22.7501 6.83007 21.295 5.375 19.5001 5.375Z" stroke="#BFBFBF" stroke-width="2" stroke-linecap="round" stroke-linejoin="round"/>
<path d="M29.2501 36.25C32.8399 36.25 35.7501 33.3399 35.7501 29.75C35.7501 26.1601 32.8399 23.25 29.2501 23.25C25.6602 23.25 22.7501 26.1601 22.7501 29.75C22.7501 33.3399 25.6602 36.25 29.2501 36.25Z" stroke="#BFBFBF" stroke-width="2" stroke-linecap="round" stroke-linejoin="round"/>
<path d="M13.0001 18.375H19.5001" stroke="#BFBFBF" stroke-width="2" stroke-linecap="round" stroke-linejoin="round"/>
<path d="M13.0001 24.875H17.8751" stroke="#BFBFBF" stroke-width="2" stroke-linecap="round" stroke-linejoin="round"/>
</svg>
