<svg width="32" height="30" viewBox="0 0 32 30" fill="none" xmlns="http://www.w3.org/2000/svg">
<path d="M28.7501 13.844V7.91664C28.7501 7.54092 28.6008 7.18058 28.3351 6.9149C28.0695 6.64923 27.7091 6.49997 27.3334 6.49997H4.66675C4.29102 6.49997 3.93069 6.35072 3.66501 6.08504C3.39934 5.81936 3.25008 5.45903 3.25008 5.08331C3.25008 4.70758 3.39934 4.34725 3.66501 4.08157C3.93069 3.81589 4.29102 3.66664 4.66675 3.66664H27.3334C27.7091 3.66664 28.0695 3.51738 28.3351 3.25171C28.6008 2.98603 28.7501 2.6257 28.7501 2.24997C28.7501 1.87425 28.6008 1.51391 28.3351 1.24824C28.0695 0.982561 27.7091 0.833305 27.3334 0.833305H4.66675C3.53958 0.833305 2.45857 1.28107 1.66154 2.0781C0.864515 2.87513 0.416748 3.95614 0.416748 5.08331V24.9166C0.416748 26.0438 0.864515 27.1248 1.66154 27.9218C2.45857 28.7189 3.53958 29.1666 4.66675 29.1666H27.3334C27.7091 29.1666 28.0695 29.0174 28.3351 28.7517C28.6008 28.486 28.7501 28.1257 28.7501 27.75V21.8226C29.5782 21.5341 30.296 20.9951 30.8039 20.2803C31.3119 19.5654 31.5848 18.7102 31.5848 17.8333C31.5848 16.9564 31.3119 16.1012 30.8039 15.3864C30.296 14.6715 29.5782 14.1325 28.7501 13.844ZM25.9167 26.3333H4.66675C4.29102 26.3333 3.93069 26.1841 3.66501 25.9184C3.39934 25.6527 3.25008 25.2924 3.25008 24.9166V9.07264C3.70378 9.24043 4.18304 9.32861 4.66675 9.33331H25.9167V13.5833H21.6667C20.5396 13.5833 19.4586 14.0311 18.6615 14.8281C17.8645 15.6251 17.4167 16.7061 17.4167 17.8333C17.4167 18.9605 17.8645 20.0415 18.6615 20.8385C19.4586 21.6355 20.5396 22.0833 21.6667 22.0833H25.9167V26.3333ZM27.3334 19.25H21.6667C21.291 19.25 20.9307 19.1007 20.665 18.835C20.3993 18.5694 20.2501 18.209 20.2501 17.8333C20.2501 17.4576 20.3993 17.0972 20.665 16.8316C20.9307 16.5659 21.291 16.4166 21.6667 16.4166H27.3334C27.7091 16.4166 28.0695 16.5659 28.3351 16.8316C28.6008 17.0972 28.7501 17.4576 28.7501 17.8333C28.7501 18.209 28.6008 18.5694 28.3351 18.835C28.0695 19.1007 27.7091 19.25 27.3334 19.25Z" fill="#BFBFBF"/>
</svg>
